<svg width="130" height="39" viewBox="0 0 130 39" fill="none" xmlns="http://www.w3.org/2000/svg">
<path fill-rule="evenodd" clip-rule="evenodd" d="M0 19.4526V35.9051C0 37.562 1.34315 38.9051 3 38.9051H28.5863H57.1727L64.8238 29.3844L72.475 19.8643L72.655 29.3844L72.8344 38.9051H101.418H127C128.657 38.9051 130 37.562 130 35.9051V19.4526V3C130 1.34314 128.657 0 127 0H101.418H72.8344L72.655 9.52073L72.475 19.0408L64.8238 9.52073L57.1727 0H28.5863H3C1.34314 0 0 1.34315 0 3V19.4526ZM26.9711 11.9335L28.611 13.0053L27.2018 14.9078C25.8329 16.7545 25.7413 16.7798 24.0285 15.7708C19.2861 12.9762 14.6653 19.0758 18.5724 22.9735C19.9179 24.3157 24.05 24.3501 24.05 23.0189C24.05 22.4139 23.4364 22.0462 22.425 22.0462C20.997 22.0462 20.8 21.7674 20.8 19.7456V17.4457L24.8625 17.6383L28.925 17.8315V21.652C28.925 25.0244 28.7241 25.6223 27.2116 26.7486C23.2043 29.7332 16.1434 28.57 13.6669 24.5167C12.0419 21.8582 11.9496 17.4107 13.466 14.8494C15.8899 10.7573 22.8663 9.25099 26.9711 11.9335ZM45.3654 11.6663C50.1696 13.8418 51.8823 19.9337 48.9762 24.5089C45.4506 30.0581 36.077 29.7151 33.1175 23.9279C30.6449 19.0933 32.2946 13.9001 37.063 11.5107C39.9574 10.0596 41.897 10.0959 45.3654 11.6663ZM95.55 19.1283V27.882H93.275H91V19.1283V10.3747H93.275H95.55V19.1283ZM115.05 12.6442C115.05 14.8598 114.988 14.9136 112.45 14.9136H109.85V21.3978V27.882H107.575H105.3V21.3978V14.9136H102.7C100.162 14.9136 100.1 14.8598 100.1 12.6442V10.3747H107.575H115.05V12.6442ZM38.35 16.2105C36.6899 17.8665 36.6307 21.4665 38.2388 22.9184C39.9815 24.4921 43.2601 24.2988 44.4879 22.5501C46.0408 20.3396 45.758 17.8043 43.7872 16.2578C41.6338 14.5674 40.0107 14.5538 38.35 16.2105Z" fill="white"/>
</svg>
